<svg xmlns="http://www.w3.org/2000/svg" viewBox="0 0 746.23 349.2"><defs><style>.cls-1{fill:#f37c23;}</style></defs><g id="Layer_2" data-name="Layer 2"><g id="Layer_1-2" data-name="Layer 1"><path class="cls-1" d="M.23,132.89,55,154.71q-.33,4.31-.45,8.62L8.68,179.92A96.85,96.85,0,0,1,.23,132.89Zm161.1,204.37q-22.28,11.3-58.29,11.92-57.65.76-74.72-33.54Q22,303.17,13.42,242.19l-.34-16.34q.18-15.51.45-29.45l65-33.62,0,4.72q2,96.66,8.14,108.32,8.7,9.9,25,9.75l1-.12q10.6,0,17.77-16.75L187,289.08Q184,315.59,161.33,337.26ZM23.69,85.13Q30.21,50.65,37.8,36.07,62.88.62,101.84,0q33.85-.6,66.55,19.36,20.24,18.43,20.77,53.06l.18,5.32q.14,16.53-48.6,18.94-15.15.24-17.93-20.22-1.78-10.16-9.67-10l-.78-.06Q95,66.73,90.26,99a310.1,310.1,0,0,0-5.17,45L21.4,120.73Q22.38,100,23.69,85.13ZM125.15,241l-.09-1.38c-.22-2.25-.46-4.36-.7-6.35l43.85-5.54q8.94,6.78,9.44,23.51l-53.6-6C124.4,243.94,124.77,242.52,125.15,241ZM125,207q0-12.78,19-15.27h2.56q20.66-.21,28.11,12.93a28.8,28.8,0,0,1,2.56,7.86l-51.1,7.75Q125.07,208.15,125,207Zm6,42.71,53.59,6.2c0,1.45,0,3,.05,4.53q.16,13.58-11.52,17.21l-45.32-19.33A49.8,49.8,0,0,0,131,249.67Z"/><path class="cls-1" d="M265,11.77q28.5,0,32.52,7.88,6.38,6,9.64,24.72.58,0,1.76,19.2,0,15.33-16.84,29.83-6.54,3.52-6.54,6.54v1.34q4.69,15.09,15.76,36.38,5.19,7.29,5.19,10.64v1q0,5.52-7.21,5.53h-.67q-5.12,0-11.65.33-8.37,0-11-12-4.86-11.66-12.4-33.28c-2.24-4.8-4.27-7.2-6.12-7.2s-3,1.81-3.43,5.44q1.33,15.51,1.34,30.93v3.77q0,9.48-3.11,11.65h-.33a66.19,66.19,0,0,1-11.23,1.09q-2.59,0-8.3-2.51-5.19,0-5.2-16.76-.66-31.51-1.34-47.69.34-12.5.67-17.86-.33-15-.33-22.29,0-6.37.33-29.84,0-6.19,10-6.2h8.21Q250,12.44,265,11.77ZM251.59,45q1.77,28,3.52,28c1.35,2,5.7,2.94,13.08,2.94q12.57,0,14.92-9a41.58,41.58,0,0,0,.92-7q0-18.69-6.62-21.71-4.79-2.51-12.74-2.51h-1.93q-11.15,0-11.15,7.63Z"/><path class="cls-1" d="M317.07,44.88l26.66,6.87c-.06.45-.12.89-.17,1.34L316.4,51.24Q316.75,47.73,317.07,44.88Zm29.59,14.75v1q-.09,2.94.59,24.89a56.16,56.16,0,0,0-.42,6.71q-.09,7,6.62,7.29h.67Q367.2,100,367.28,94V93q.08-7.62-.09-15.75.42-6.28.59-17.1c0-1.17,0-2.32-.08-3.44L392.09,63q.17,7.8,0,17.18-.09,5.28.25,28.83-.42,32.28-.51,37.22-.16,9.72-9.55,9.38l-2-.08q-11.24-.42-13.16-5.2-.93,0-1.51-12.82.51-9.56.5-12.32.09-4.11-6.62-5l-.33-.08q-10.48-.33-12.07,2.6A8.55,8.55,0,0,0,346,127.1l-.25,18.77q-.18,10.06-10.9,9.64a54.27,54.27,0,0,0-6.7.08q-7.38-.33-7.21-9.05v-2.35q-1.26-30.91-1.34-67.8-.25,0-.51-12.07.35-7.54.84-13.33l27.16,1.85Q346.74,55.94,346.66,59.63Zm18.1-20.45c-1-1.62-3-2.27-6-1.93q-8.13-.33-10.06,12.91L322,43.28c.39-2.85.81-5.19,1.26-7q4.52-15.5,13-20.28,9.63-6,27.57-5.36,20,.75,24.81,13,4.44,6.87,4.86,38.05l-24.39-6.29Q368.63,44.79,364.76,39.18Z"/><path class="cls-1" d="M439.8,130.37h5.36q12.07,0,16.43-12.41v-2.68q0-15.09-23.81-20.12-12.06-3.76-19.11-9.22l24.48-17.43a91,91,0,0,0,17.43,7.54q19,5.53,22.13,11.07a20.79,20.79,0,0,1,5.36,14.41v4q0,20.53-6.12,34.19-6.94,15.42-34.44,15.42-30.09,0-33.53-7.37-3.86-4.78-5-13.41c-.44-3.74-.78-6.82-1-9.22l22.46-3.35C431.53,127.52,434.65,130.37,439.8,130.37Zm-31-77.7a63.94,63.94,0,0,1,0-10.39q1.83-29.18,35.45-35.62a48.8,48.8,0,0,1,34.7,7q11.64,8,11.65,21.87v3.35q0,12.4-7,12.41a77.29,77.29,0,0,1-9.05.67q-6,0-7.05-9.72,0-5.7-8.71-9.06a10.52,10.52,0,0,0-2.68-.33h-2.69q-14.49,0-16.59,14a23.25,23.25,0,0,0-.67,5.7v.67q0,4,4.27,7.79L414.07,74.13A47.2,47.2,0,0,1,408.79,52.67Zm1.84,28.08c-.5-.9-1-1.79-1.43-2.68L435.52,65a34.16,34.16,0,0,0,5,3.52L416,85.94A29.82,29.82,0,0,1,410.63,80.75Zm3.1,36.46q0-9.39,11.73-9.39h4q6.7,0,6.7,8.38a28.35,28.35,0,0,0,.34,3.19l-22.46,3.35C413.84,120.22,413.73,118.38,413.73,117.21Z"/><path class="cls-1" d="M510.89,55.52l.08,1.42-13.32,1.6-1.76-9.31,9.72,5.2Zm71.83,25.73-30.26-5.53.09,2.6q.16,6.12-12.07,6.87-10,.59-10.31-7.21l.5-7-27.24-6.87a4.9,4.9,0,0,0-2.35,4.61q1.1,13.91,1.43,23.8l.42,11.48a11.28,11.28,0,0,0,.5,3.1,23.57,23.57,0,0,0-.25,3.36q.42,10.56,1.17,38.22.25,6.87,5,8.8l2,.25,14.42-.92q8-.51,7.79-7.63l-1.09-28q-.24-6.7,7.13-7.13l3.69-.25q9.3-.58,10.89,4l3.19,30.26a10.26,10.26,0,0,0,3.94,5.95,25.29,25.29,0,0,0,4.35.34q3.19-.18,13.08-.42c3.57-.23,5.28-2.82,5.11-7.8l-.08-1.67q-.25-5.87-.17-39.23-.33-6.87-.25-14.92Q583,84.44,582.72,81.25ZM506.2,49.32,535,54.51q.16-7.62-.25-20.78L534,15.79q-.42-11.05-9.47-10.56-11.24-.33-14.08-.17-6,.42-6.37,8.22.16,5.12,1.09,12.4,0,8.64.17,11.48Q505.44,39.68,506.2,49.32Zm32.35,12.74L510,59.79c0,1.12.11,2.3.17,3.52L539,72Q539.81,65.83,538.55,62.06ZM556,74.29l29.08-1a18.71,18.71,0,0,0-.5-4c.11-1.57.17-2.91.17-4q.59-7.36-.5-27,.59-11.38.25-20.61-.35-8.48-11.06-7.8l-4.7.25q-13.07.84-12.91,4.95-1.84.08-.75,32.52.59,12.06.75,23.63Zm35.79-.92-12.32,2.68c-.17.79-.31,1.54-.42,2.27l13.66,4Q593.69,79.49,591.77,73.37Z"/><path class="cls-1" d="M221.65,232.54l25.61,6.6c-.06.43-.11.86-.16,1.29L221,238.66C221.22,236.4,221.44,234.36,221.65,232.54Zm28.42,14.17v1q-.07,2.82.57,23.92a54.41,54.41,0,0,0-.4,6.44q-.09,6.77,6.36,7h.64q12.57.48,12.64-5.32v-1q.09-7.33-.08-15.14.4-6,.57-16.43c0-1.13,0-2.23-.08-3.3l23.43,6q.15,7.48,0,16.51-.09,5.07.24,27.7-.4,31-.48,35.75-.17,9.35-9.18,9l-1.94-.08q-10.78-.4-12.64-5-.89,0-1.45-12.32.48-9.18.49-11.83c.05-2.63-2.07-4.22-6.37-4.75l-.32-.08q-10.06-.33-11.59,2.49a8.2,8.2,0,0,0-1,4.19l-.24,18q-.16,9.66-10.47,9.26a48.39,48.39,0,0,0-6.44.08c-4.73-.22-7-3.12-6.93-8.7V328q-1.2-29.7-1.28-65.14-.25,0-.49-11.59.33-7.25.81-12.81l26.09,1.78C250.26,242.17,250.13,244.35,250.07,246.71Zm17.4-19.65c-1-1.56-2.9-2.17-5.8-1.85q-7.82-.33-9.66,12.4L226.4,231q.57-4.11,1.21-6.77,4.35-14.9,12.48-19.48,9.25-5.81,26.49-5.16,19.25.74,23.84,12.48,4.26,6.61,4.67,36.56l-23.44-6Q271.17,232.46,267.47,227.06Z"/><path class="cls-1" d="M337.15,316.17h5.16q11.6,0,15.78-11.92v-2.57q0-14.49-22.87-19.33-11.6-3.62-18.36-8.85l23.51-16.75A88.18,88.18,0,0,0,357.12,264q18.28,5.33,21.26,10.63a20,20,0,0,1,5.15,13.85v3.87q0,19.73-5.87,32.85Q371,340,344.56,340q-28.9,0-32.21-7.09-3.71-4.59-4.83-12.88-.64-5.4-1-8.86L328.13,308Q329.75,316.17,337.15,316.17Zm-29.79-74.64a61.3,61.3,0,0,1,0-10q1.77-28,34.06-34.22a46.92,46.92,0,0,1,33.34,6.77q11.19,7.72,11.19,21v3.22q0,11.93-6.77,11.92a71.57,71.57,0,0,1-8.69.64q-5.72,0-6.76-9.34,0-5.47-8.38-8.69a9.7,9.7,0,0,0-2.58-.32H350.2q-13.93,0-15.95,13.44a22.55,22.55,0,0,0-.64,5.48v.64q0,3.87,4.11,7.49l-25.29,12.56A45.33,45.33,0,0,1,307.36,241.53Zm1.77,27c-.48-.85-.94-1.71-1.37-2.57l25.29-12.56a33.28,33.28,0,0,0,4.75,3.38L314.28,273.5A28.87,28.87,0,0,1,309.13,268.5Zm3,35q0-9,11.27-9h3.87q6.44,0,6.44,8.05a25.89,25.89,0,0,0,.32,3.06l-21.58,3.22C312.22,306.43,312.11,304.66,312.11,303.53Z"/><path class="cls-1" d="M407.26,244.27l.08,1.36-12.8,1.54-1.69-8.94,9.34,5Zm69,24.72-29.07-5.32.08,2.5q.17,5.88-11.6,6.6c-6.38.38-9.69-1.93-9.9-6.92l.48-6.77-26.17-6.6a4.7,4.7,0,0,0-2.25,4.43q1.05,13.36,1.37,22.87l.4,11a11,11,0,0,0,.48,3,22.86,22.86,0,0,0-.24,3.22q.4,10.14,1.13,36.72.24,6.6,4.83,8.45l1.93.24,13.85-.88q7.74-.5,7.49-7.33L428,307.31q-.24-6.44,6.85-6.84l3.54-.24q8.94-.57,10.47,3.86L452,333.16a10,10,0,0,0,3.78,5.72,23,23,0,0,0,4.19.32q3.06-.17,12.56-.4,5.16-.32,4.91-7.49l-.08-1.61q-.24-5.64-.16-37.68c-.21-4.41-.29-9.18-.24-14.34Q476.51,272.06,476.27,269Zm-73.52-30.68,27.7,5q.17-7.32-.24-20l-.73-17.23q-.39-10.64-9.09-10.15-10.8-.31-13.53-.16-5.72.41-6.12,7.89.17,4.92,1,11.92,0,8.29.17,11Q402,229,402.75,238.31Zm31.08,12.24-27.46-2.18c.06,1.08.11,2.2.17,3.38l27.69,8.3Q435,254.17,433.83,250.55Zm16.75,11.75,27.94-1a17.6,17.6,0,0,0-.48-3.87c.11-1.5.16-2.79.16-3.86q.56-7.1-.48-25.93.55-11,.24-19.81-.33-8.13-10.63-7.49l-4.51.24q-12.56.81-12.4,4.75-1.77.09-.73,31.25.57,11.59.73,22.7Zm34.38-.88L473.13,264c-.16.76-.3,1.48-.41,2.18L485.85,270C486.49,268.21,486.2,265.34,485,261.42Z"/><path class="cls-1" d="M611.67,43.18V31.62a151.11,151.11,0,0,1,27.18-13.14,148.73,148.73,0,0,1,27.91-7.33V21A145.86,145.86,0,0,0,611.67,43.18Z"/><path class="cls-1" d="M611.67,76.14V64.58a151.11,151.11,0,0,1,27.18-13.14,148,148,0,0,1,27.91-7.33V54A145.7,145.7,0,0,0,611.67,76.14Z"/><path class="cls-1" d="M611.67,113.79V102.23a151.16,151.16,0,0,1,27.18-13.15,148.7,148.7,0,0,1,27.91-7.32v9.87A145.8,145.8,0,0,0,611.67,113.79Z"/><path class="cls-1" d="M611.67,151.44V139.88a150.45,150.45,0,0,1,27.18-13.14,148,148,0,0,1,27.91-7.33v9.87A145.7,145.7,0,0,0,611.67,151.44Z"/><path class="cls-1" d="M611.67,189.09V177.53a151.11,151.11,0,0,1,27.18-13.14,148,148,0,0,1,27.91-7.33v9.87A145.7,145.7,0,0,0,611.67,189.09Z"/><path class="cls-1" d="M721.22,338.18c0-1.64,0-3.32,0-5V209.64a30.1,30.1,0,0,1,25,29.66v69.21A30.11,30.11,0,0,1,721.22,338.18Z"/><path class="cls-1" d="M712.48,338.61c0-1.78,0-3.6,0-5.45v-124H568.67v124c0,1.85,0,3.67,0,5.45ZM627.87,266.9c1-9.84,10.35-7.73,9.7-11.43-.09-2.24,0-2.28,2.28-2.23,4-.26,4.12.22,4,4.11,2.06.3,11.82,5,8.64,7.55-5.89,5.73-3.28,3.13-9.36.27a11.33,11.33,0,0,0-4.62-.31c-2.44.29-2.3,3.5-.52,4.59,3.44,1.86,7.57,3,10.63,5.46,6.49,5.33,3.05,14.25-4.84,15.66-.23,2.85.62,4.34-3,4-1.52,0-3.69.3-3.24-1.92.25-1.58-.48-2.07-1.89-2.59-1.69-.89-8.71-3.35-5.73-5.82,1.58-1,2.86-4.7,5-3.05,1.69.9,3.45,2.49,5.44,2.43,1.28-.23,2.79-.23,3.07-1.95C643.76,276.19,626.88,278.83,627.87,266.9Z"/><path class="cls-1" d="M532.2,308.51V239.3a30.1,30.1,0,0,1,27.65-30V333.16c0,1.82,0,3.6,0,5.35A30.11,30.11,0,0,1,532.2,308.51Z"/></g></g></svg>